HIERARCHY
ROOT hip
{
	OFFSET 0.000000 0.000000 0.000000 
	CHANNELS 6 Xposition Yposition Zposition Xrotation Zrotation Yrotation
	JOINT abdomen
	{
		OFFSET 0.000000 3.402643 0.000000 
		CHANNELS 3 Xrotation Zrotation Yrotation
		JOINT chest
		{
			OFFSET 0.000000 8.438565 -0.680529 
			CHANNELS 3 Xrotation Zrotation Yrotation
			JOINT neck
			{
				OFFSET 0.000000 10.207942 -0.272212 
				CHANNELS 3 Xrotation Zrotation Yrotation
				JOINT head
				{
					OFFSET 0.000000 3.130431 0.000000 
					CHANNELS 3 Xrotation Zrotation Yrotation
					End Site
					{
						OFFSET 0.000000 3.130435 0.000000 
					}
				}
			}
			JOINT lCollar
			{
				OFFSET 3.470700 6.669187 -0.816635 
				CHANNELS 3 Yrotation Zrotation Xrotation
				JOINT lShldr
				{
					OFFSET 3.198488 0.000000 0.000000 
					CHANNELS 3 Zrotation Yrotation Xrotation
					JOINT lForeArm
					{
						OFFSET 10.139888 0.000000 0.000000 
						CHANNELS 3 Yrotation Zrotation Xrotation
						JOINT lHand
						{
							OFFSET 8.370511 0.000000 0.000000 
							CHANNELS 3 Zrotation Yrotation Xrotation
							End Site
							{
								OFFSET 4.083176 0.000000 0.000000 
							}
						}
					}
				}
			}
			JOINT rCollar
			{
				OFFSET -3.470700 6.669187 -0.816635 
				CHANNELS 3 Yrotation Zrotation Xrotation
				JOINT rShldr
				{
					OFFSET -3.198488 0.000000 0.000000 
					CHANNELS 3 Zrotation Yrotation Xrotation
					JOINT rForeArm
					{
						OFFSET -10.139888 0.000000 0.000000 
						CHANNELS 3 Yrotation Zrotation Xrotation
						JOINT rHand
						{
							OFFSET -8.370511 0.000000 0.000000 
							CHANNELS 3 Zrotation Yrotation Xrotation
							End Site
							{
								OFFSET -4.083176 0.000000 0.000000 
							}
						}
					}
				}
			}
		}
	}
	JOINT lThigh
	{
		OFFSET 5.308129 -1.633274 1.361059 
		CHANNELS 3 Xrotation Zrotation Yrotation
		JOINT lShin
		{
			OFFSET -2.041588 -20.007561 0.000000 
			CHANNELS 3 Xrotation Zrotation Yrotation
			JOINT lFoot
			{
				OFFSET 0.000000 -19.190928 -1.224953 
				CHANNELS 3 Xrotation Yrotation Zrotation
				End Site
				{
					OFFSET 0.000000 -2.449906 4.627600 
				}
			}
		}
	}
	JOINT rThigh
	{
		OFFSET -5.308129 -1.633274 1.361059 
		CHANNELS 3 Xrotation Zrotation Yrotation
		JOINT rShin
		{
			OFFSET 2.041588 -20.007561 0.000000 
			CHANNELS 3 Xrotation Zrotation Yrotation
			JOINT rFoot
			{
				OFFSET 0.000000 -19.190928 -1.224953 
				CHANNELS 3 Xrotation Yrotation Zrotation
				End Site
				{
					OFFSET 0.000000 -2.449906 4.627600 
				}
			}
		}
	}
}
MOTION
Frames: 20
Frame Time: 0.033333
-3.040686 49.053455 -2.004540 0.576232 0.830036 0.838567 0.000000 0.000000 0.000000 -3.672107 -0.643208 -0.359114 5.419433 -0.431329 -0.476465 5.488275 0.117014 -0.006368 -0.256947 9.869967 -2.816933 -5.680815 -0.170543 -12.367332 1.100383 -3.668690 17.602543 0.991961 -3.320543 -3.458072 -0.441597 -9.895090 -2.809223 0.140432 -11.604220 -0.191200 -0.764888 7.012418 8.892843 -1.650745 8.466038 -3.500976 4.829271 10.716167 9.209068 -2.178581 -3.345722 2.394682 -1.012884 0.074675 -7.567326 5.204131 -12.050365 -11.116297 0.363364 2.717007 -16.782167 -1.048263 -0.087973 8.903743 
-3.036156 49.036968 -2.026626 0.576223 0.761680 0.964821 0.000000 0.000000 0.000000 -3.789280 -0.613889 -0.271844 5.858274 -0.294792 -0.521459 5.087891 0.019494 -0.020726 0.165410 10.475007 -2.951745 -5.853077 -0.773393 -11.787510 1.208538 -4.170469 17.442940 1.110027 -3.166661 -3.465115 -0.236523 -9.788907 -2.901635 0.003840 -11.947141 0.285071 -0.707304 7.047888 8.467891 -1.904648 8.587574 -3.526571 4.761352 10.784225 9.185002 -2.127961 -3.304336 2.223284 -1.035282 0.069776 -7.873521 5.219609 -11.965367 -11.048254 0.263423 2.663536 -16.905554 -0.942605 -0.084492 8.839218 
-3.033766 49.039993 -2.029305 0.527387 0.732391 1.120147 0.000000 0.000000 0.000000 -3.740436 -0.594434 -0.273641 5.877591 -0.245788 -0.570822 5.058591 -0.068229 -0.044601 0.274967 10.478950 -2.915581 -5.981807 -0.901965 -11.949500 1.189995 -4.101870 17.438957 0.802323 -3.263480 -3.446921 -0.266394 -9.748150 -2.858755 -0.184014 -11.986264 0.323686 -0.710786 7.086566 8.166256 -1.780055 8.644079 -3.519100 4.733511 10.806125 9.156730 -2.119932 -3.277408 2.153880 -0.967456 0.065735 -7.684887 5.311739 -11.903306 -11.004308 0.282578 2.615381 -17.030806 -0.984058 -0.110125 9.029427 
-3.006958 49.043514 -2.026134 0.390666 0.830059 1.031191 0.000000 0.000000 0.000000 -3.662327 -0.623724 -0.087034 6.044244 -0.249486 -0.439596 4.912092 -0.175417 -0.037511 0.347174 10.590863 -2.838247 -6.233512 -0.932134 -11.874471 1.210317 -4.114683 17.548161 1.007037 -3.407684 -3.459239 -0.101486 -9.835749 -2.789426 -0.202448 -12.113056 0.256021 -0.714739 6.977584 8.808558 -1.650745 8.466038 -3.500976 4.889016 10.678178 9.097396 -2.080120 -3.217663 2.246797 -1.026405 0.061516 -7.834628 5.424779 -12.013741 -11.111710 0.286008 2.588406 -16.883520 -0.966037 -0.100171 8.938561 
-3.009477 49.049553 -2.035939 0.273465 0.810538 1.009866 0.000000 0.000000 0.000000 -3.564652 -0.604297 -0.001420 6.161889 -0.276832 -0.338830 4.785143 -0.146159 -0.039073 0.319819 10.463999 -2.741839 -6.144496 -0.862696 -11.772728 1.197932 -4.184529 17.374498 1.118304 -3.303130 -3.465675 -0.043687 -9.907175 -2.704392 -0.169818 -12.093143 0.088594 -0.683425 6.899151 8.645655 -1.330601 8.387573 -3.471274 5.017475 10.670664 9.099809 -2.119969 -3.189570 2.277697 -0.994585 0.070729 -7.809292 5.523879 -11.996303 -11.143113 0.267619 2.587037 -16.787050 -0.934813 -0.092813 8.783441 
-3.019671 49.040112 -2.068896 0.322296 0.791003 1.069037 0.000000 0.000000 0.000000 -3.535340 -0.584822 -0.002934 6.093711 -0.379311 -0.271880 4.726562 0.009743 -0.059254 0.373446 10.304930 -2.714657 -6.106736 -0.853126 -11.839131 1.162824 -4.095254 17.681810 1.031609 -3.327934 -3.460413 -0.103791 -9.982340 -2.674975 -0.159457 -11.956355 0.059136 -0.689219 6.949390 8.472492 -1.524338 8.493268 -3.493471 4.839954 10.717987 9.090670 -2.004089 -3.209832 2.221823 -0.992813 0.064701 -7.853487 5.428801 -11.972506 -11.066696 0.304430 2.580855 -16.892027 -0.941384 -0.090241 8.826510 
-3.016900 49.044018 -2.092177 0.371128 0.781234 1.089177 0.000000 0.000000 0.000000 -3.574412 -0.594544 0.037136 6.142519 -0.314344 -0.277561 4.697249 -0.165630 -0.027753 0.369039 10.432089 -2.754830 -6.277727 -0.803648 -11.575172 1.167918 -4.232224 17.384302 0.939603 -3.264999 -3.455136 -0.018788 -9.957588 -2.713249 -0.220591 -11.937070 0.169562 -0.713262 6.991649 8.740664 -1.606352 8.703546 -3.498962 4.724510 10.710315 9.046767 -1.973648 -3.170149 2.247792 -0.970851 0.063752 -7.790474 5.385764 -11.985302 -11.126578 0.245177 2.670718 -16.916128 -0.891650 -0.071209 8.801035 
-3.023067 49.039864 -2.122693 0.351598 0.810532 1.128158 0.000000 0.000000 0.000000 -3.554905 -0.633544 0.019824 6.074207 -0.375280 -0.323762 5.195301 -0.146225 -0.079182 0.307598 10.435044 -2.726546 -6.304232 -0.656122 -11.372465 1.156084 -4.298250 17.269051 0.763268 -3.265828 -3.444570 -0.030852 -10.083836 -2.694802 -0.114521 -11.781125 0.291419 -0.701877 7.061665 8.711429 -1.608167 8.732788 -3.498958 4.665854 10.691396 9.013397 -1.904669 -3.168263 2.223670 -0.967768 0.069696 -7.809017 5.357650 -12.025622 -11.149809 0.322957 2.681432 -16.901543 -0.915997 -0.083216 8.891315 
-3.043708 49.033440 -2.157035 0.429721 0.712871 1.128515 0.000000 0.000000 0.000000 -3.613482 -0.604265 0.057688 6.064579 -0.390905 -0.307551 5.332032 0.009750 -0.147040 0.278754 10.465696 -2.782959 -6.314858 -0.617346 -11.412245 1.199763 -4.242210 17.689457 0.733022 -3.414394 -3.442808 0.018337 -10.057600 -2.748837 -0.075468 -11.722579 0.309104 -0.669862 7.069222 8.581692 -1.473879 8.633296 -3.480223 4.508789 10.826191 9.083292 -1.835340 -3.187119 2.228997 -0.956068 0.063377 -7.863544 5.230418 -11.917434 -11.092418 0.272952 2.722629 -17.022696 -0.820423 -0.061815 8.593319 
-3.066357 49.040863 -2.173750 0.507845 0.644506 1.128869 0.000000 0.000000 0.000000 -3.642775 -0.594500 0.115971 5.986630 -0.372044 -0.329701 5.332032 -0.009750 -0.214288 0.395583 10.342322 -2.814525 -6.123420 -0.813118 -11.664609 1.249765 -4.200750 17.739777 0.689852 -3.348502 -3.439871 -0.115094 -9.866037 -2.790107 -0.152038 -11.556266 0.186541 -0.654208 7.018831 8.753837 -1.375695 8.639231 -3.474435 4.401563 10.953161 9.123606 -1.768192 -3.208181 2.108524 -0.964373 0.084788 -7.907822 5.145871 -11.826369 -11.008636 0.238138 2.747037 -17.054144 -0.815940 -0.062960 8.488112 
-3.075040 49.039234 -2.192360 0.537148 0.683564 1.100275 0.000000 0.000000 0.000000 -3.681895 -0.672437 0.160455 6.006398 -0.364154 -0.312391 5.332028 -0.077998 -0.190854 0.428941 10.242690 -2.840667 -5.997484 -0.861598 -11.716395 1.278806 -4.212230 17.722593 0.692573 -3.230939 -3.439895 0.101989 -9.877209 -2.808430 -0.115788 -11.742218 0.359861 -0.641980 7.044968 8.646242 -1.462688 8.770947 -3.480524 4.429776 10.882178 9.116915 -1.952916 -3.217154 2.267087 -0.832940 0.059777 -7.872242 5.082996 -11.895843 -11.094132 0.254051 2.820121 -16.897482 -0.828248 -0.067034 8.486860 
-3.087373 49.037849 -2.210293 0.507851 0.703097 1.100101 0.000000 0.000000 0.000000 -3.642844 -0.691959 0.190534 6.035890 -0.397059 -0.343849 5.283180 -0.214483 -0.212166 0.509503 10.209136 -2.812357 -5.996342 -0.988372 -11.686357 1.228727 -4.236725 17.632517 0.721276 -3.219433 -3.441661 0.482047 -9.954167 -2.737132 -0.069221 -12.191790 0.514588 -0.631531 6.972272 8.555113 -1.302370 8.888249 -3.462403 4.450928 10.875608 9.106669 -1.962977 -3.198090 2.296931 -0.800158 0.049740 -7.822950 5.125093 -11.921537 -11.118089 0.234819 2.838136 -16.820793 -0.815611 -0.068686 8.559138 
-3.115061 49.049553 -2.227559 0.459017 0.683572 1.138405 0.000000 0.000000 0.000000 -3.613538 -0.682235 0.199330 6.084631 -0.479454 -0.310900 5.292936 -0.253483 -0.209947 0.562870 10.010899 -2.790935 -5.929126 -1.125303 -11.779686 1.143544 -4.145212 17.809559 0.689852 -3.348502 -3.439871 0.722262 -9.965510 -2.697991 -0.173872 -12.524535 0.850771 -0.604797 7.022125 8.221498 -1.247249 8.793734 -3.458010 4.510151 10.916546 9.132551 -2.069945 -3.178330 2.224674 -0.726115 0.042417 -7.677390 5.182395 -11.850367 -11.102377 0.176530 2.827393 -16.961143 -0.759349 -0.077039 8.407887 
-3.131040 49.049801 -2.252639 0.537150 0.703094 1.207883 0.000000 0.000000 0.000000 -3.721023 -0.750368 0.253873 6.114325 -0.426485 -0.305806 5.371039 -0.331503 -0.186356 0.570416 9.980811 -2.871028 -5.892722 -1.288949 -11.406389 1.044909 -4.270740 17.953896 0.792202 -3.420622 -3.446337 0.697468 -10.024941 -2.783992 -0.115707 -12.719975 0.905950 -0.598080 6.974965 8.347176 -1.409799 8.871982 -3.478542 4.351679 10.892352 9.016792 -2.040340 -3.119222 2.142529 -0.721940 0.048296 -7.695975 5.056843 -11.872627 -11.109719 0.217567 2.862880 -17.027269 -0.764946 -0.082490 8.332665 
-3.142745 49.047287 -2.276726 0.615274 0.654259 1.305965 0.000000 0.000000 0.000000 -3.887116 -0.818426 0.368102 6.321434 -0.165942 -0.363991 5.263578 -0.428958 -0.219108 0.285994 10.474154 -3.001088 -6.337721 -1.212111 -11.225027 1.035720 -4.164583 19.122265 0.481050 -3.625152 -3.417755 0.792025 -9.906688 -2.938308 -0.183296 -13.111526 1.369163 -0.595693 7.010378 8.249430 -1.313998 8.916900 -3.462981 4.175638 10.940506 8.967348 -1.943537 -3.091107 2.096633 -0.708609 0.042607 -7.833831 4.967890 -11.802798 -11.039005 0.227465 2.852822 -17.163221 -0.766989 -0.069971 8.327086 
-3.148911 49.036968 -2.296407 0.507847 0.664037 1.314592 0.000000 0.000000 0.000000 -3.828554 -0.857457 0.438232 6.518054 -0.113273 -0.378074 4.853410 -0.428768 -0.264866 0.184643 10.420015 -2.941680 -6.339138 -1.261509 -11.322182 1.076162 -4.145846 19.270630 0.382948 -3.787539 -3.411902 0.805620 -10.004658 -2.896083 -0.008845 -13.229060 1.535789 -0.614464 7.060084 8.243189 -1.386718 8.658133 -3.475011 4.235453 10.961754 8.990966 -1.894341 -3.100125 2.073680 -0.711712 0.050764 -7.851714 5.035339 -11.810387 -11.052524 0.295408 2.843158 -17.109896 -0.809143 -0.065407 8.528836 
-3.156587 49.036339 -2.311018 0.517606 0.595679 1.343373 0.000000 0.000000 0.000000 -3.809001 -0.837989 0.417112 6.400607 -0.101171 -0.491917 4.824152 -0.341054 -0.368096 0.173815 10.479386 -2.926039 -6.545846 -1.331925 -11.478751 1.099257 -4.179794 18.462313 0.655106 -3.585384 -3.428369 0.765410 -9.884624 -2.881058 -0.056746 -13.248442 1.460104 -0.630123 7.063483 8.040282 -1.135624 8.741749 -3.451622 4.188382 11.043720 9.077153 -1.905288 -3.140948 2.037184 -0.653187 0.040300 -7.707784 5.017693 -11.726018 -10.992336 0.282733 2.830085 -17.218384 -0.769022 -0.071514 8.525352 
-3.159858 49.037346 -2.324723 0.410176 0.566392 1.293213 0.000000 0.000000 0.000000 -3.603817 -0.740720 0.261490 6.105149 -0.294644 -0.472288 4.980376 -0.409336 -0.296347 0.375840 10.029244 -2.758373 -6.303402 -1.379795 -11.544076 1.121886 -4.281508 17.812914 0.689265 -3.338754 -3.439870 0.684727 -9.827028 -2.694654 -0.247528 -12.993801 1.109235 -0.662506 7.094627 7.712120 -1.154063 8.721074 -3.452786 4.273115 11.086563 9.134295 -1.816635 -3.139388 1.992275 -0.699137 0.050375 -7.861980 5.075156 -11.685477 -10.990025 0.305114 2.823709 -17.196957 -0.760638 -0.079803 8.385903 
-3.160738 49.038986 -2.340353 0.332048 0.576162 1.175312 0.000000 0.000000 0.000000 -3.574542 -0.769984 0.302000 6.164080 -0.304093 -0.471156 4.999847 -0.526301 -0.298887 0.332906 10.050538 -2.726446 -6.431737 -1.312634 -11.629086 1.143679 -4.205228 17.938925 0.241828 -3.394844 -3.412688 0.777690 -9.870105 -2.654672 -0.177365 -12.983927 1.047214 -0.628029 7.023255 7.902349 -1.172720 8.543844 -3.453069 4.391284 11.059258 9.134839 -1.876213 -3.111839 2.063578 -0.666934 0.040748 -7.781185 5.096869 -11.717673 -11.023898 0.341849 2.839177 -17.057966 -0.747375 -0.079187 8.396247 
-3.163887 49.045906 -2.354711 0.234383 0.488277 1.027471 0.000000 0.000000 0.000000 -3.515882 -0.692055 0.335485 6.212805 -0.321869 -0.391967 4.872932 -0.448267 -0.302804 0.411625 10.104883 -2.675678 -6.526204 -1.361105 -11.477582 1.145600 -4.243369 18.253048 0.565647 -3.238549 -3.432235 0.794253 -9.811693 -2.610093 -0.153515 -12.846741 0.819767 -0.643407 6.969051 8.145751 -1.154284 8.564521 -3.451906 4.577264 11.099201 9.174549 -2.032095 -3.043060 2.120232 -0.603583 0.027278 -7.659226 5.132242 -11.594920 -10.942308 0.276302 2.803333 -16.935017 -0.677057 -0.066199 8.200583 
